<svg id="Layer_4" data-name="Layer 4" xmlns="http://www.w3.org/2000/svg" viewBox="0 0 147.89 58"><defs><style>.cls-1{fill:#868d94;}.cls-2,.cls-3{fill:#fee100;}.cls-3{stroke:#fee100;stroke-miterlimit:10;stroke-width:0.27px;}</style></defs><path class="cls-1" d="M66,30.69c6.33,0,12.69,3.93,12.69,13.4S72,57.5,65.66,57.5,53,53.56,53,44.09,59.7,30.69,66,30.69Zm-.36,23.85c6.43,0,9.36-4.7,9.36-10.45s-2.56-10.44-9-10.44-9.36,4.7-9.36,10.44S59.23,54.54,65.66,54.54Z"/><path class="cls-1" d="M101.3,54.14l-.11-22.84h3.07V56.85h-5.2L86.81,34h-.22l.11,22.84H83.52V31.3h5.31l12.25,22.84Z"/><path class="cls-1" d="M119.94,45.21V42.32H132.4V56.85h-3l-.15-3.51a9.69,9.69,0,0,1-8.35,4.16c-6.32,0-12.32-3.94-12.32-13.41s6.36-13.4,12.68-13.4c7.09,0,10.41,4,10.77,6.39h-3.79c-.18-.86-2-3.43-7-3.43-6.43,0-9,4.7-9,10.44s2.2,10.45,8.63,10.45c4.48,0,8.24-2.93,8.24-7.09V45.21Z"/><polygon class="cls-1" points="44.35 30.86 44.46 54.62 44.24 54.62 31.49 30.86 29.23 30.86 26.08 30.86 25.93 30.86 26.04 54.62 25.82 54.62 13.07 30.86 9.17 30.86 10.96 33.68 23.71 57.44 26.08 57.44 29.23 57.44 29.27 57.44 29.23 49.52 29.23 33.68 29.39 33.68 42.13 57.44 47.66 57.44 47.66 30.86 44.35 30.86"/><rect class="cls-1" x="80.83" y="0.5" width="4.24" height="4.24"/><path class="cls-2" d="M14.29,2.33h3.39V19.45c0,6.65-4.1,9.06-8.91,9.06-5.87,0-8.5-4-8.5-7.07H3.8c0,1.39,1.21,4,5.12,4,3.19,0,5.37-1.54,5.37-5.37Z"/><polygon class="cls-2" points="81.31 7.55 81.27 25.01 81.05 25.01 68.3 2.35 65.94 2.35 62.78 2.35 62.74 2.35 62.78 9.89 62.78 25.01 62.63 25.01 49.88 2.35 44.36 2.35 44.36 27.83 47.67 27.83 47.55 5.17 47.78 5.17 60.52 27.83 62.78 27.83 65.94 27.83 66.08 27.83 65.97 5.17 66.2 5.17 78.94 27.83 84.36 27.83 84.36 7.55 81.31 7.55"/><path class="cls-3" d="M138,2.43c4.33,0,8.66,1.74,8.66,7.25s-3.59,6.36-6.85,6.77c0,0,1.45.78,4.41,5.74l3.4,5.7h-4L140.15,22c-2.89-4.88-4.26-5.29-4.26-5.29h-5.63V27.89H127V2.43ZM130.26,5.5v8.14H138c1.78,0,5,.52,5-3.77,0-3.74-3.22-4.37-5-4.37Z"/><path class="cls-2" d="M27.28,16v8.86H39.75v3H24V2.43H39.32v3h-12V13H37.45v3Z"/><path class="cls-2" d="M111.17,16v9.1h12.19V28H108V2.28h14.93V5.34H111.17V13h9.94V16Z"/><path class="cls-2" d="M92.5,16v11.8H89.25V2.33h15.2v3h-12V13h10.07v3Z"/></svg>